<?xml version="1.0" encoding="utf-8"?><svg version="1.1" id="Layer_1" xmlns="http://www.w3.org/2000/svg" xmlns:xlink="http://www.w3.org/1999/xlink" x="0px" y="0px" viewBox="0 0 122.88 90.09" style="enable-background:new 0 0 122.88 90.09" xml:space="preserve"><g><path d="M29.47,31.46c-0.37,1.98-2.27,3.28-4.25,2.91c-1.98-0.37-3.28-2.27-2.91-4.25c1.87-9.86,6.82-17.35,13.35-22.41 c5.59-4.34,12.33-6.86,19.26-7.53c6.9-0.67,14,0.51,20.37,3.57c6.96,3.34,13.03,8.91,16.97,16.73c1.58-0.25,3.17-0.37,4.75-0.36 c6.66,0.04,13.09,2.43,18.15,7.88c1.06,1.14,2.06,2.43,3,3.87c3.17,4.88,4.8,11.39,4.73,17.77c-0.07,6.25-1.76,12.48-5.21,17.07 c-2.25,2.99-5.13,5.42-8.59,7.36c-3.34,1.87-7.22,3.28-11.58,4.3l-0.81,0.1H70.65c-2.02,0-3.65-1.64-3.65-3.65s1.64-3.65,3.65-3.65 h25.64c3.5-0.84,6.59-1.98,9.22-3.45c2.61-1.46,4.74-3.24,6.34-5.36c2.48-3.3,3.7-7.97,3.75-12.76c0.05-5.03-1.17-10.07-3.56-13.75 c-0.69-1.06-1.43-2.01-2.23-2.87c-3.58-3.85-8.13-5.54-12.84-5.57c-3.43-0.02-6.96,0.8-10.32,2.29c-0.75,0.37-1.49,0.77-2.23,1.2 c-2.24,1.31-4.44,2.91-6.68,4.74l-4.79-5.49c1.65-1.54,3.45-2.94,5.36-4.18c1.52-0.99,3.1-1.87,4.73-2.63 c0.65-0.33,1.31-0.64,1.98-0.92c-3.17-5.6-7.72-9.62-12.87-12.1c-5.16-2.47-10.93-3.42-16.55-2.88C50.01,7.97,44.59,10,40.1,13.48 C34.92,17.5,30.98,23.51,29.47,31.46L29.47,31.46z M3.65,56.38C1.64,56.39,0.01,54.77,0,52.76c-0.01-2.01,1.61-3.65,3.62-3.65 L46,48.89c0.06,0,0.11,0,0.17,0l0,0c6.14,0.27,9.61-1.37,11-3.58c0.58-0.92,0.79-1.98,0.66-3.01c-0.13-1.09-0.62-2.17-1.43-3.07 c-1.77-1.99-5.05-3.1-9.45-1.92c-1.95,0.52-3.95-0.64-4.47-2.58c-0.52-1.95,0.64-3.95,2.58-4.47c7.46-2,13.36,0.27,16.78,4.12 c1.81,2.03,2.93,4.52,3.23,7.1c0.31,2.62-0.24,5.32-1.75,7.72c-2.66,4.21-8.28,7.38-17.46,6.97L3.65,56.38L3.65,56.38z M13.37,70.53c-2.02,0-3.65-1.64-3.65-3.65c0-2.02,1.64-3.65,3.65-3.65h19.16l0.03,0c8.92-0.5,14.46,2.57,17.13,6.74 c1.55,2.42,2.12,5.18,1.83,7.87c-0.29,2.62-1.4,5.18-3.23,7.28c-3.41,3.91-9.26,6.23-16.7,4.24c-1.95-0.52-3.1-2.52-2.58-4.47 c0.52-1.95,2.52-3.1,4.47-2.58c4.35,1.17,7.59,0.03,9.34-1.98c0.83-0.95,1.34-2.1,1.46-3.26c0.12-1.1-0.1-2.21-0.72-3.16 c-1.39-2.16-4.72-3.72-10.57-3.4c-0.15,0.02-0.3,0.03-0.46,0.03H13.37L13.37,70.53z"/></g></svg>